<svg xmlns="http://www.w3.org/2000/svg" xmlns:xlink="http://www.w3.org/1999/xlink" width="1080" zoomAndPan="magnify" viewBox="0 0 810 809.999993" height="1080" preserveAspectRatio="xMidYMid meet" version="1.0"><defs><clipPath id="ab3a39b592"><path d="M 350 51.636719 L 807 51.636719 L 807 698 L 350 698 Z M 350 51.636719 " clip-rule="nonzero"/></clipPath></defs><path fill="#009245" d="M 280.679688 741.65625 C 263.734375 735.816406 246.59375 730.265625 229.84375 724.035156 C 185.820312 707.675781 143.359375 686.257812 107.226562 656.273438 C 71.09375 626.285156 41.488281 587.4375 27.171875 542.847656 C 17.628906 513.25 14.902344 481.996094 12.269531 451.035156 C 8.179688 403.621094 4.089844 356.109375 0 308.695312 C 29.121094 357.667969 76.839844 392.914062 126.898438 420.171875 C 176.960938 447.433594 230.523438 467.976562 280.289062 495.628906 C 305.320312 509.550781 330.15625 526.003906 345.25 550.246094 C 361.222656 576.046875 364.4375 607.882812 362.292969 638.164062 C 360.445312 664.546875 354.796875 690.738281 356.742188 717.121094 C 357.714844 730.167969 360.539062 744.675781 365.019531 757.914062 C 364.242188 757.527344 363.367188 757.234375 362.585938 756.84375 C 343.984375 748.667969 325.773438 739.125 308.339844 728.414062 C 273.375 706.800781 241.433594 680.222656 212.605469 650.234375 C 209.097656 646.4375 205.59375 642.542969 202.085938 638.746094 L 199.457031 635.824219 C 198.578125 634.851562 197.703125 633.878906 196.925781 632.90625 L 191.859375 626.964844 L 186.796875 621.027344 L 184.261719 618.007812 C 183.386719 617.035156 182.707031 615.964844 181.828125 614.894531 L 172.285156 602.527344 C 171.503906 601.457031 170.628906 600.484375 169.851562 599.414062 L 167.609375 596.199219 L 158.453125 583.347656 C 157.675781 582.277344 156.898438 581.207031 156.214844 580.136719 L 154.074219 576.824219 L 145.5 563.683594 L 143.359375 560.371094 C 142.675781 559.300781 141.996094 558.132812 141.3125 556.964844 L 137.320312 550.246094 C 115.796875 514.222656 97.78125 475.863281 83.074219 436.238281 C 94.859375 476.835938 110.148438 516.558594 129.335938 554.628906 L 132.9375 561.734375 C 133.523438 562.902344 134.105469 564.167969 134.789062 565.335938 L 136.738281 568.84375 L 144.429688 582.863281 L 146.378906 586.367188 C 147.058594 587.535156 147.742188 588.605469 148.421875 589.773438 L 152.613281 596.589844 L 156.800781 603.40625 L 158.84375 606.8125 C 159.527344 607.980469 160.304688 609.050781 161.085938 610.121094 L 169.945312 623.460938 C 170.726562 624.53125 171.40625 625.699219 172.1875 626.769531 L 174.523438 629.984375 L 179.199219 636.507812 L 183.972656 643.03125 C 184.75 644.101562 185.53125 645.171875 186.40625 646.242188 L 188.9375 649.359375 C 192.25 653.546875 195.5625 657.828125 198.96875 662.015625 C 223.316406 691.320312 250.390625 718.289062 280.679688 741.65625 Z M 280.679688 741.65625 " fill-opacity="1" fill-rule="nonzero"/><g clip-path="url(#ab3a39b592)"><path fill="#39b54a" d="M 792.078125 406.152344 C 771.335938 472.648438 727.21875 529.996094 674.722656 575.851562 C 657.097656 591.234375 638.398438 605.449219 618.335938 617.621094 C 588.628906 635.632812 555.515625 647.410156 523.085938 659.582031 C 492.796875 670.875 462.410156 681.78125 431.929688 692.488281 C 426.863281 694.242188 421.703125 696.09375 416.636719 697.84375 C 417.027344 695.507812 417.417969 693.171875 417.808594 690.933594 L 418.683594 686.0625 C 418.976562 684.410156 419.269531 682.851562 419.65625 681.195312 L 421.800781 671.558594 L 422.382812 669.125 L 422.96875 666.6875 L 425.5 656.953125 C 425.890625 655.296875 426.28125 653.738281 426.863281 652.085938 C 430.664062 639.234375 434.753906 626.480469 439.621094 613.726562 L 443.226562 604.183594 C 443.808594 602.625 444.394531 600.972656 445.078125 599.414062 L 447.023438 594.738281 L 451.015625 585.296875 L 452.964844 580.621094 C 453.648438 579.066406 454.425781 577.507812 455.109375 575.949219 C 457.933594 569.71875 460.757812 563.488281 463.679688 557.355469 L 472.832031 538.953125 C 474.292969 535.835938 476.046875 532.820312 477.605469 529.800781 L 482.472656 520.648438 C 484.128906 517.628906 485.6875 514.515625 487.34375 511.496094 L 492.503906 502.539062 L 497.667969 493.582031 C 499.421875 490.5625 501.074219 487.546875 502.925781 484.625 L 513.738281 466.90625 C 517.242188 460.96875 521.136719 455.125 524.839844 449.382812 C 528.636719 443.539062 532.339844 437.699219 536.234375 431.953125 L 548.019531 414.722656 L 553.960938 406.152344 L 555.421875 404.011719 L 556.976562 401.871094 L 559.996094 397.683594 L 572.269531 380.742188 C 574.3125 377.917969 576.359375 375.09375 578.402344 372.273438 L 584.734375 363.898438 C 593.207031 352.800781 601.484375 341.601562 610.347656 330.699219 C 645.019531 286.886719 681.636719 244.4375 719.523438 203.15625 C 678.425781 241.324219 638.300781 280.65625 600.023438 321.839844 C 590.285156 332.0625 581.035156 342.578125 571.585938 353.09375 L 564.574219 360.976562 C 562.238281 363.605469 559.996094 366.332031 557.660156 368.960938 L 543.929688 385.027344 L 540.519531 389.019531 L 538.765625 391.0625 L 537.109375 393.105469 L 530.390625 401.285156 L 517.046875 417.738281 C 512.664062 423.289062 508.378906 428.933594 504.09375 434.582031 C 499.808594 440.230469 495.425781 445.777344 491.335938 451.523438 L 478.773438 468.753906 C 476.628906 471.578125 474.683594 474.597656 472.636719 477.519531 L 466.597656 486.28125 L 460.5625 495.042969 C 458.613281 497.964844 456.664062 500.980469 454.71875 504 L 448.972656 512.957031 C 447.023438 515.976562 445.074219 518.894531 443.226562 522.011719 L 432.125 540.414062 C 428.519531 546.644531 425.109375 552.875 421.507812 559.203125 C 420.632812 560.761719 419.753906 562.320312 418.878906 563.875 L 416.347656 568.648438 L 411.378906 578.285156 L 408.847656 583.058594 C 407.96875 584.613281 407.289062 586.269531 406.507812 587.925781 L 401.835938 597.757812 C 395.601562 610.804688 390.050781 624.335938 384.792969 637.96875 C 384.109375 639.621094 383.523438 641.375 382.941406 643.128906 L 381.089844 648.289062 L 380.699219 649.554688 C 380.699219 649.164062 380.699219 648.675781 380.699219 648.289062 C 380.507812 635.824219 379.53125 622.972656 378.167969 610.609375 C 375.636719 587.730469 371.742188 566.699219 369.109375 553.847656 C 367.457031 545.671875 366.285156 540.703125 366.191406 540.511719 C 351.191406 493.972656 342.523438 445.777344 360.445312 398.460938 C 373.203125 364.773438 397.453125 338.195312 425.890625 315.414062 C 445.660156 299.542969 467.476562 285.328125 488.707031 271.894531 C 497.082031 266.539062 505.359375 261.28125 513.738281 255.828125 C 531.265625 244.535156 548.796875 233.046875 566.132812 221.167969 C 610.445312 190.792969 653.199219 158.273438 690.792969 120.886719 C 712.21875 99.566406 731.890625 76.785156 749.324219 51.859375 C 769.484375 108.914062 789.15625 166.550781 799.480469 226.132812 C 809.511719 286.011719 810 348.320312 792.078125 406.152344 Z M 792.078125 406.152344 " fill-opacity="1" fill-rule="nonzero"/></g></svg>